<?xml version="1.0" encoding="UTF-8"?>
<svg id="Layer_2" data-name="Layer 2" xmlns="http://www.w3.org/2000/svg" viewBox="0 0 406 222.13">
  <defs>
    <style>
      .cls-1 {
        fill: #f04900;
      }

      .cls-2 {
        fill: #0718f5;
      }

      .cls-3 {
        fill: #e5873a;
      }
    </style>
  </defs>
  <g id="Layer_1-2" data-name="Layer 1">
    <g>
      <g>
        <path class="cls-2" d="M307.31,156.43c22.39.13,40.07-17.87,40.03-39.76-.04-22.1-17.94-39.91-40.21-39.69-21.45.21-39.94,18-39.2,41.14.67,20.84,17.67,38.14,39.38,38.32ZM318.41,147.79c.22-.43.31-.64.43-.84,1.73-2.79,3.49-5.57,5.17-8.39.38-.63.73-.93,1.49-.92,2.37.05,4.73.02,7.1.02.03.11.07.23.1.34-3.83,4.46-8.52,7.67-14.3,9.78ZM310.91,119.86h11.99c-.43,2.39-.77,4.66-1.25,6.9-.28,1.33-.75,2.61-1.2,3.9-.1.28-.47.67-.72.68-2.91.05-5.82.03-8.82.03v-11.5ZM310.89,113.42v-12.22c2.9,0,5.77-.01,8.63.02.22,0,.56.26.64.48,1.38,3.66,2.29,7.43,2.54,11.34,0,.1-.06.21-.11.38h-11.7ZM338.84,127.22c-.32,1.16-.85,2.26-1.36,3.36-.15.32-.54.74-.83.75-3.17.05-6.34.03-9.61.03.38-1.63.8-3.11,1.07-4.62.36-2.01.58-4.04.92-6.05.06-.34.44-.89.68-.89,3.51-.06,7.02-.04,10.98-.04-.66,2.66-1.2,5.08-1.87,7.46ZM336.29,101.2c.24,0,.58.22.69.44,1.87,3.59,3.03,7.39,3.41,11.43,0,.07-.04.14-.1.34-.35.03-.75.09-1.15.09-3.06,0-6.13.02-9.19-.03-.31,0-.84-.38-.89-.65-.68-3.82-1.3-7.65-1.95-11.63,2.91,0,6.04,0,9.18.02ZM332.1,94.55c-.04.1-.08.2-.13.3-2.45,0-4.9.01-7.35-.02-.24,0-.56-.24-.7-.46-1.77-2.89-3.51-5.8-5.32-8.83,5.3,1.87,9.76,4.88,13.49,9ZM310.87,86.71c2.42,2.48,4.2,5.13,6.02,8.07h-6.02v-8.07ZM310.86,138.19c0-.17.37-.48.58-.49,1.87-.04,3.75-.02,5.87-.02-1.82,3.28-3.84,6.11-6.47,8.93,0-3.02-.01-5.72.03-8.42ZM282.57,137.97c.04-.1.09-.19.13-.29,2.11,0,4.22-.02,6.33.02.27,0,.66.22.8.46,1.72,2.91,3.41,5.85,5.17,8.89-4.89-2.05-9.02-5.06-12.43-9.07ZM304.49,147.87c-3.16-3.12-5.52-6.4-7.7-10.19,2.54,0,4.77-.02,7,.03.24,0,.67.4.68.62.04,3.05.03,6.11.03,9.54ZM304.47,130.72c0,.21-.44.6-.68.61-3.1.04-6.2.04-9.3,0-.26,0-.67-.25-.76-.47-1.32-3.52-2.07-7.16-2.36-11.01h13.13c0,3.7.01,7.29-.03,10.88ZM304.41,85.43v9.35h-7.13c1.98-3.47,4.27-6.44,7.13-9.35ZM296.26,101.15c2.71-.03,5.43,0,8.24,0,0,3.13.01,6.11,0,9.08,0,1.04.26,2.41-.28,3.02-.47.53-1.91.22-2.92.23-3.25.02-6.49,0-10.17,0,.61-3.01,1.16-5.77,1.75-8.53.13-.62.37-1.23.58-1.83.79-2.28.33-1.95,2.82-1.98ZM295.21,86.1c-.2.41-.28.6-.38.77-1.47,2.37-2.97,4.73-4.39,7.13-.38.65-.77.91-1.51.89-1.87-.04-3.75-.01-5.62-.01-.03-.11-.06-.22-.09-.33,3.28-3.66,7.2-6.43,11.99-8.45ZM275.46,109.62c.81-2.58,1.76-5.13,2.72-7.66.13-.35.68-.77,1.04-.78,2.64-.07,5.28-.04,7.9-.04-.79,4.11-1.56,8.15-2.35,12.28h-9.95c.21-1.32.27-2.61.64-3.8ZM278.01,130.9c-1.77-3.43-2.71-7.1-3.18-11.15,2.67,0,5.13,0,7.58,0,2.52,0,2.45.01,2.86,2.49.47,2.79,1.09,5.56,1.64,8.33.04.21.06.43.11.79-2.86,0-5.66,0-8.45-.02-.2,0-.47-.24-.57-.44Z"/>
        <path class="cls-2" d="M209.54,123.27c3.49,25.59,24.53,41.37,43.82,42.91-12.6-14.13-19.1-30.66-19.13-49.5-.02-18.87,6.57-35.36,19.19-49.59-27.89,3.04-47.62,28.73-43.88,56.19Z"/>
        <path class="cls-2" d="M328.87,23.02c-20.09-8.86-38.67-5.82-55.33,8.52-8.02,6.91-16.95,24.94-15.19,30.63,14.09-12.56,30.67-19.01,49.39-18.95,18.7.05,35.26,6.56,49.37,19.27-1.37-14.78-10.8-31.77-28.25-39.47Z"/>
        <path class="cls-2" d="M405.98,114.92c-.79-27.45-23.3-46.19-44.09-47.69,12.35,14.15,19.05,30.53,19.05,49.4,0,18.9-6.66,35.34-19.12,49.56,21.18-1.72,45.04-21.08,44.16-51.27Z"/>
        <path class="cls-2" d="M258.06,170.87c2.32,24.29,24.23,45.81,52.2,44.21,28.03-1.6,45.13-24.13,46.82-44.22-14.14,12.65-30.65,19.21-49.47,19.22-18.82.01-35.33-6.53-49.56-19.21Z"/>
      </g>
      <path class="cls-1" d="M325.57,54.33c6.93-.12,11.99,3.22,15.88,8.61,3.06,4.24,2.91,8.67.4,13.1-1.45,2.56-2.99,5.08-4.51,7.6-1.16,1.93-2.63,2.25-4.44.88-4.01-3.05-8.35-5.48-13.21-6.86-2.39-.68-4.85-1.13-7.3-1.59-2.11-.4-2.98-1.74-2.43-3.84.82-3.1,1.47-6.26,2.41-9.32,1.4-4.54,4.53-7.3,9.24-8.16,1.3-.24,2.63-.28,3.94-.42Z"/>
      <path class="cls-1" d="M245.18,98.7c-.07-6.88,3.34-11.82,8.56-15.75,4.24-3.19,8.7-3.04,13.17-.5,2.66,1.51,5.28,3.1,7.88,4.71,1.65,1.03,1.92,2.6.74,4.15-3.02,3.97-5.49,8.25-6.88,13.05-.72,2.5-1.2,5.07-1.67,7.63-.35,1.9-1.58,2.87-3.46,2.42-3.3-.8-6.64-1.5-9.88-2.51-3.94-1.22-6.59-3.92-7.67-7.95-.45-1.7-.54-3.5-.8-5.25Z"/>
      <path class="cls-1" d="M325.37,179.03c-3.96.02-7.58-.85-10.38-3.91-1.21-1.33-2.17-2.81-2.62-4.57-.85-3.33-1.72-6.66-2.54-10-.36-1.46.59-2.76,2.23-3.11,2.44-.52,4.92-.86,7.31-1.56,4.94-1.44,9.46-3.76,13.52-6.96,1.73-1.37,3.34-1.03,4.44.84,1.57,2.67,3.22,5.3,4.71,8.01,2.4,4.36,2.29,8.65-.64,12.79-2.28,3.22-5.17,5.71-8.81,7.25-2.29.97-4.74,1.27-7.22,1.22Z"/>
      <path class="cls-1" d="M245.34,134.54c.06-3.06.39-6.05,2.29-8.62,1.6-2.17,3.63-3.74,6.25-4.44,3.28-.89,6.58-1.73,9.88-2.56,1.41-.36,2.99.74,3.17,2.19.96,7.79,3.77,14.81,8.63,21,1.19,1.52.9,3.16-.74,4.16-3.04,1.85-6.02,3.83-9.2,5.37-4.41,2.13-8.67,1.49-12.51-1.62-2.89-2.34-5.42-5.03-6.64-8.59-.75-2.18-.95-4.56-1.4-6.84.09-.02.19-.03.28-.05Z"/>
      <path class="cls-1" d="M289.77,54.41c2.87.02,5.67.31,8.16,1.96,2.7,1.79,4.46,4.23,5.2,7.41.66,2.87,1.45,5.72,2.13,8.59.51,2.15-.33,3.4-2.49,3.69-7.6.99-14.41,3.85-20.49,8.51-1.64,1.26-3.26.95-4.31-.8-1.57-2.63-3.1-5.28-4.67-7.91-2.55-4.27-2.51-9.67,1.34-14.1,2.31-2.65,4.86-5.07,8.25-6.2,2.19-.73,4.55-.98,6.83-1.45.02.1.04.2.05.3Z"/>
      <path class="cls-1" d="M369.85,134.52c.25,7.65-3.63,13.02-9.79,16.88-3.29,2.06-7,1.99-10.44.22-3.19-1.64-6.23-3.57-9.31-5.42-1.47-.89-1.76-2.64-.69-4.01,2.96-3.79,5.36-7.9,6.74-12.51.78-2.6,1.31-5.28,1.84-7.94.48-2.44,1.61-3.21,3.99-2.59,2.6.68,5.18,1.41,7.81,1.93,5.38,1.08,9.62,5.4,9.84,11.98.02.49,0,.98,0,1.48Z"/>
      <path class="cls-1" d="M369.9,99.27c-.07,3.79-.91,7.27-3.8,9.99-1.44,1.35-3.08,2.31-4.99,2.8-3.08.78-6.16,1.56-9.25,2.31-2,.49-3.14-.34-3.6-2.36-.73-3.24-1.37-6.51-2.39-9.66-1.26-3.91-3.43-7.39-5.91-10.67-1.55-2.04-1.31-3.42.88-4.75,2.74-1.67,5.45-3.43,8.3-4.9,4.35-2.25,8.64-1.95,12.58,1.05,3.18,2.42,5.87,5.32,7.13,9.18.73,2.23.92,4.64,1.35,6.97-.1.02-.2.03-.3.05Z"/>
      <path class="cls-1" d="M289.74,179.11c-6.73.03-11.75-3.05-15.71-8.3-3.34-4.44-3.19-8.94-.57-13.56,1.46-2.57,2.99-5.08,4.52-7.61,1.06-1.75,2.67-2.06,4.31-.76,4.09,3.24,8.65,5.57,13.63,7.01,2.42.7,4.94,1.07,7.42,1.6,1.36.29,2.35,1.51,2.04,2.82-.86,3.68-1.61,7.41-2.83,10.97-1.48,4.34-4.85,6.72-9.33,7.49-1.15.2-2.33.24-3.49.35Z"/>
      <g>
        <path class="cls-2" d="M126.16,95.51c1.72-.14,3.27-.22,4.8-.39,2.9-.33,5.77-.77,8.44-2.08,4.88-2.39,8.17-6.23,10.55-11.02,1.35-2.73,2.9-5.36,4.46-8.22.37.56.61.92.84,1.29,4.14,6.44,11.15,9.04,18.46,6.8,5.27-1.61,8.84-5.29,11.58-9.84,3.21-5.34,4.92-11.18,5.45-17.38.3-3.48-.29-6.76-2.55-9.5-.75-.91-1.88-1.69-2.99-2.09-1.97-.7-3.04-.15-3.96,1.7-.67,1.35-1.24,2.75-1.82,4.15-.9,2.2-1.78,4.41-2.66,6.62-.35.87-.97,1.25-1.88,1.02-1.24-.31-2.57-.47-3.68-1.04-5.19-2.7-7.4-7.3-7.94-12.91-.36-3.81.12-7.57.82-11.29,1.76-9.44,3.62-18.86,5.44-28.29.12-.63.27-1.28.22-1.91-.03-.39-.3-.91-.62-1.08-.25-.14-.83.07-1.1.31-.47.42-.9.93-1.2,1.48-3.17,5.73-6.32,11.46-9.44,17.21-.86,1.59-1.98,3.17-2.33,4.89-1.24,6.07-2.42,12.17-3.22,18.32-.92,7.09-1.44,14.23-2.08,21.35-.3,3.36-1.98,5.77-4.92,7.24-3.09,1.54-6.42,1.81-9.75,1.11-3.44-.72-6.09-2.56-6.91-6.22-.3-1.32-.51-2.7-.45-4.05.22-5.45.36-10.91.91-16.33.74-7.37,1.83-14.71,2.73-22.07.11-.93.37-2.18-.82-2.55-1.15-.35-1.7.72-2.16,1.6-3.25,6.15-6.42,12.35-9.76,18.45-1.8,3.28-3.02,6.69-3.21,10.42-.35,6.73-.74,13.46-.86,20.2-.28,15.61-.45,31.21-.58,46.82-.07,9.1-.33,18.16-2.2,27.12-2.18,10.45-6.07,20.12-12.93,28.42-6.89,8.33-15.42,14.45-25.64,17.92-10.66,3.62-21.66,4.43-32.83,2.91-10.12-1.38-18.72-5.79-25.95-12.9-4.18-4.11-6.35-9.06-5.68-15.05.58-5.17,1.61-10.26,3.3-15.16,1.74-5.03,3.84-9.94,5.8-14.9,1.35-3.44,2.73-6.87,4.09-10.3l-.27-.18c-1.92,2.39-3.98,4.67-5.72,7.18-5.7,8.23-11.01,16.68-13.16,26.68-.84,3.91-1.85,7.81-2.39,11.76-.84,6.09-.04,12.17.66,18.23,1.11,9.52,5.83,17.16,12.67,23.59,5.53,5.19,12.44,7.38,19.79,8.18,7.57.82,15.12.46,22.59-1.1,11.8-2.46,22.06-7.92,31.03-15.93,7.88-7.04,13.89-15.55,19.37-24.48,5.71-9.32,9.88-19.29,12.67-29.86,2.3-8.71,4.19-17.51,5.17-26.47.74-6.77,1.01-13.59,1.46-20.38.18-2.67.26-5.34.39-7.98Z"/>
        <path class="cls-2" d="M153,131.15c.21-.58-.13-.96-.81-.77-.36.1-.71.25-1.05.42-2.44,1.27-4.54,2.97-6.35,5.06-2.29,2.65-4.25,5.5-5.23,8.93-.92,3.2-.22,4.59,2.79,5.52,1.64.51,1.86.98,1.15,2.54-.17.38-.37.75-.6,1.09-2.61,3.77-6.19,5.58-10.79,5.12-2.85-.29-5.43-2.08-4.99-5.75.15-1.23.36-2.49.79-3.64,1.12-3,2.4-5.95,3.58-8.93.25-.63.35-1.31.52-1.97-.14-.05-.29-.1-.43-.14-.24.42-.52.81-.73,1.25-1.2,2.56-2.43,5.12-3.56,7.71-1.45,3.35-2.6,6.8-2.37,10.52.25,4.08,1.92,6.66,6.09,7.22,2.48.33,4.85-.25,6.88-1.73,5.8-4.24,7.65-10.34,7.83-17.16.02-.96-.49-1.73-1.44-2.13-.45-.19-.9-.39-1.33-.61-1-.51-1.24-1.18-.65-2.11,1.5-2.33,3.4-4.26,5.99-5.36.52-.22,1.2-.01,1.8-.07.32-.03.83-.11.92-.31.71-1.54,1.38-3.09,1.96-4.68Z"/>
        <path class="cls-2" d="M192.16,137.7c-.35.49-.66,1.03-1.08,1.45-.79.78-2.32.82-3.02.16-.67-.64-.57-1.81.26-2.77.78-.9,1.65-1.21,2.83-.69.38.17.95-.09,1.43-.15-.11-.59-.07-1.29-.38-1.75-.23-.34-.92-.5-1.41-.52-1.28-.05-2.14.77-2.71,1.77-.83,1.44-1.47,2.98-2.27,4.44-.23.43-.85,1.07-1.07.99-.55-.2-1.1-.67-1.42-1.18-.3-.47-.3-1.13-.43-1.7-.12-.03-.24-.05-.37-.08-.27.47-.6.92-.8,1.42-.63,1.51-.76,3.06-.42,4.67.21.97-.25,1.5-1.25,1.5-.33,0-.68-.08-1-.18-1.99-.62-2.51-.46-3.84,1.13-.51.61-1,1.25-1.6,1.75-1.73,1.42-4.36,1.07-5.38-.91-.59-1.15-.93-2.62-.82-3.9.35-4.33.95-8.64,1.43-12.96.09-.77.09-1.56.13-2.34-.13-.02-.27-.04-.4-.06-.65,1.92-1.55,3.8-1.88,5.78-.73,4.35-1.26,8.75-1.7,13.15-.14,1.43.07,2.95.39,4.36.4,1.78,1.55,3.07,3.45,3.33,1.7.24,2.84-.78,3.77-2.07.2-.28.35-.58.55-.86.48-.68.87-1.49,1.5-1.98.7-.55,1.68-1.21,2.45-1.1,1.57.22,2.61-.47,3.68-1.33.47-.38.89-.83,1.38-1.17.25-.18.64-.33.91-.26,2.45.61,4.36-.45,6.09-1.97,2.12-1.85,3.16-4.4,4.3-6.87.07-.15-.01-.38-.02-.57-.58.44-.93.95-1.29,1.46Z"/>
        <path class="cls-2" d="M178.73,97.74c-.69.48-1.36,1.25-2.18,1.46-1.17.3-2.02.9-2.89,1.66-.71.62-1.57,1.2-2.46,1.46-1.45.44-2.4-.41-2.46-1.93,0-.19-.08-.38-.16-.7-1.36,1.21-1.97,2.67-2.25,4.24-.29,1.63-1.13,2.33-2.78,2.1-1.06,1.88-1.21,1.95-2.68,1.29-.09.11-.2.21-.29.33-.7,1-1.46,1.73-2.83,1.06-.32-.16-.89.02-1.27.21-.64.32-1.23.74-1.81,1.16-1.21.88-2.43.99-3.85.46-.84-.32-1.87-.45-2.74-.29-3.24.6-5.19,2.9-6.77,5.57-.12.2-.11.48-.18.83.29-.06.48-.05.63-.13,1.99-1.01,3.94-1.23,6.09-.3,1.52.65,3.13.44,4.44-.8.77-.73,1.56-1.43,2.28-2.2.7-.75,1.48-1.05,2.51-1.04.67,0,1.37-.26,2-.53.82-.35,1.61-.8,2.38-1.26,1.45-.86,2.92-1.7,4.29-2.67,1.03-.73,1.78-1.69,3.33-1.57,1.68.13,2.68-1.2,3.5-2.52.62-.99,1.4-1.66,2.65-1.65,1.86.02,3.86-2.55,3.49-4.21Z"/>
        <path class="cls-2" d="M195.22,93.48c-1.34,1.55-2.7,3.06-3.99,4.63-1.28,1.57-1.68,3.76-3.42,5.09-.23-.35-.36-.57-.51-.78-1.19-1.72-2.66-1.79-3.75-.02-.89,1.43-1.62,2.99-2.23,4.56-.57,1.45.44,2.7,2.03,2.7.55,0,1.09-.16,1.8-.27-.54,1.78-1.45,3.09-2.82,4.06-1.54,1.09-3.12,2.14-4.66,3.23-.36.26-.65.63-.97.95.06.09.12.18.17.27,1.03-.33,2.04-.78,3.1-.95,3.7-.59,5.55-3.06,6.63-6.35.09-.29.2-.57.28-.86.61-2.46,1.96-4.56,3.28-6.67.86-1.36,2.09-1.85,3.71-1.53.56.11,1.32-.04,1.8-.36,2.73-1.82,2.42-6.18-.46-7.71Z"/>
        <path class="cls-2" d="M200.26,131.4c-1.57,2.86-2.68,5.85-2.75,9.17-.07,3.09-.16,6.19-.32,9.28-.05.96-.32,1.9-.5,2.85.11.06.23.12.34.19.41-.58.9-1.13,1.21-1.76,1.15-2.29,1.73-4.74,1.83-7.3.16-3.7.3-7.4.45-11.1.02-.43.04-.86.06-1.29-.11-.01-.22-.03-.33-.04Z"/>
        <path class="cls-2" d="M176.9,129.86c.83.77,1.38.53,1.91-.28.44-.67.86-1.34,1.34-2.1.66.59,1.16,1.11,1.73,1.53.26.19.8.39.95.27,1.07-.88,1.88-1.97,2.04-3.4.14-1.28-.78-1.98-1.63-2.68-.53-.43-1.04-.38-1.42.25-.46.77-.94,1.54-1.49,2.44-.57-.6-.98-1.09-1.46-1.52-.92-.83-1.3-.76-1.92.28-.29.49-.57.98-.82,1.49-1.35,2.7-1.22,1.86.77,3.69Z"/>
        <path class="cls-2" d="M161.77,140.03c-.64,1.45-1.22,2.93-1.88,4.37-1.1,2.43-2.39,4.72-4.81,6.14-1.27.75-2.47,1.61-3.66,2.48-.41.3-.7.76-1.04,1.15.08.14.16.28.24.42,1.66-.4,3.33-.77,4.99-1.2,1.88-.49,3.23-1.65,3.91-3.47,1.06-2.82,2.08-5.66,3.04-8.51.24-.71.22-1.52.33-2.28-.15-.05-.29-.11-.44-.16-.23.35-.51.68-.68,1.06Z"/>
        <path class="cls-2" d="M169.42,161.65c-.67-.47-1.28-.5-1.69.3-.62,1.2-1.25,2.4-1.75,3.65-.13.31.11.98.4,1.21.8.66,1.72,1.18,2.75,1.86.51-.77,1.04-1.44,1.45-2.18,1.24-2.24.94-3.38-1.16-4.85Z"/>
      </g>
      <g>
        <path class="cls-3" d="M125.47,187.98c-1.67.03-3.33.03-5,0-.68-.01-1.02.24-1.19.92-.91,3.59-1.86,7.18-2.8,10.76-.33,1.25-.68,2.49-1.03,3.74-.34-.29-.47-.55-.54-.82-1.18-4.46-2.37-8.92-3.49-13.39-.23-.9-.61-1.26-1.55-1.21-1.44.07-2.88.08-4.32,0-1.08-.06-1.45.27-1.43,1.39.06,4.58.02,9.17.02,13.75,0,2.31.02,4.62,0,6.93,0,.74.21,1.12,1.03,1.08,1.01-.05,2.03-.01,3.22-.01v-17.2c.12,0,.23,0,.35,0,.13.46.28.92.4,1.39,1.05,4.22,2.09,8.44,3.16,12.66.82,3.27.84,3.25,4.29,3.16.71-.02,1-.29,1.15-.94,1.25-5.1,2.52-10.2,3.8-15.29.09-.35.27-.68.4-1.02.1.03.19.05.29.08,0,.56,0,1.12,0,1.69,0,4.13,0,8.26,0,12.38,0,3.2,0,3.17,3.19,3.09.83-.02,1.02-.34,1.02-1.08-.01-7.01-.01-14.01,0-21.02,0-.71-.22-1.05-.97-1.03Z"/>
        <path class="cls-3" d="M171.72,202.65c-.03-1.44.03-2.88-.1-4.31-.19-2.2-1.52-3.65-3.69-3.96-1.52-.22-3.09-.32-4.63-.24-3.09.17-5.11,1.82-5.62,4.58,1.06.19,2.05.43,3.05.53.31.03.76-.23.96-.49.99-1.34,3.42-1.9,4.86-1.06.83.48,1.14,1.3.94,2.13-.09.37-.77.73-1.24.87-1.38.38-2.8.64-4.2.96-1.96.45-3.83,1.08-4.64,3.19-.71,1.85-.52,3.65.87,5.08,1.48,1.53,3.39,2.22,5.48,1.59,1.38-.41,2.65-1.17,3.92-1.76.35.42.68,1.2,1.13,1.27,1.17.19,2.38.06,3.74.06-1.13-2.85-.76-5.67-.82-8.45ZM164.49,208.55c-1.5.35-2.88-.61-3.05-1.96-.13-1.03.25-1.84,1.23-2.16,1.52-.5,3.09-.87,4.65-1.3.55,3.25-.14,4.8-2.83,5.42Z"/>
        <path class="cls-3" d="M133.41,195.19c-2.34,1.49-3.34,3.76-3.59,6.38-.56,5.9,2.25,10.26,8.61,10.13,3.09-.06,5.9-2.18,6.59-4.93-1.12-.21-2.15-.4-3.19-.59-.57-.1-.98.02-1.25.65-.45,1.01-1.29,1.55-2.42,1.6-1.9.08-3.17-.9-3.77-2.92-.4-1.33-.26-1.51,1.14-1.51,2.95,0,5.91-.02,8.86,0,.73,0,1.07-.22.98-.97-.1-.86-.15-1.73-.28-2.59-.85-5.5-6.98-8.25-11.68-5.26ZM140.15,201.52c-.83,0-1.66,0-2.49,0h0c-.87-.01-1.74.04-2.6-.05-.28-.03-.72-.45-.73-.7-.06-1.78,1.4-3.32,3.11-3.39,1.92-.08,3.44,1.24,3.64,3.1.08.76-.22,1.04-.93,1.04Z"/>
        <path class="cls-3" d="M180.6,190.91c0-2.95,0-2.91-2.91-2.93-1.01,0-1.38.25-1.36,1.32.07,3.4.02,6.81.03,10.21,0,2.91,0,5.83,0,8.74,0,2.86,0,2.79,2.83,2.88,1.21.04,1.44-.4,1.43-1.5-.04-6.24-.02-12.48-.02-18.72Z"/>
        <path class="cls-3" d="M150.47,187.97c-.91,0-1.26.26-1.25,1.23.05,3.48.02,6.96.02,10.44,0,2.91,0,5.82,0,8.74q0,2.74,2.73,2.74c1.5,0,1.51,0,1.51-1.47,0-6.2,0-12.4,0-18.61,0-3.08,0-3.05-3.02-3.06Z"/>
        <path class="cls-3" d="M194.12,193.78c-1.43-.88-1.53-.85-2.36.41-.59.91-1.47,1.28-2.53,1.18-1.12-.1-2.09-.7-2.24-1.77-.21-1.46-.17-2.99,0-4.46.06-.54.72-1.15,1.25-1.48,1.36-.83,2.75-.25,3.96,1.54.59-.16,1.2-.32,1.81-.49-.73-2.9-4.31-4.16-7.02-2.53-3.23,1.95-3.52,7.69-.51,10.05,2.06,1.62,6.79,1.48,7.64-2.46Z"/>
        <path class="cls-3" d="M218.86,185.79h-1.9v3.89c-.38-.18-.52-.22-.64-.3-1.89-1.33-4.1-.8-4.92,1.34-.35.91-.33,1.99-.32,3,.02,1.47.75,2.61,2.11,3.22,1.34.61,2.5.13,3.5-.84.04-.04.14-.02.28-.03.06,1.44,1.05.82,1.89.85v-11.13ZM216.79,194.23c-.13.9-.81,1.51-1.86,1.48-1.06-.03-1.52-.72-1.77-1.62-.11-.4-.12-.82-.19-1.44.11-.4.12-1.1.47-1.51.38-.46,1.09-.94,1.63-.92.54.02,1.37.56,1.52,1.04.29.93.34,2,.2,2.97Z"/>
        <path class="cls-3" d="M247.4,202.85c-2.46-.03-4.23,1.73-4.23,4.21,0,2.49,1.76,4.32,4.15,4.31,2.43,0,4.21-1.8,4.21-4.25,0-2.52-1.66-4.25-4.13-4.28ZM249.32,207.9c-.17,1.24-.94,1.9-2.01,1.88-1.03-.02-1.82-.8-1.99-1.96-.04-.26-.03-.53-.04-.71,0-1.5.66-2.49,1.73-2.66,1.04-.16,2.03.42,2.24,1.45.14.64.16,1.35.07,2Z"/>
        <path class="cls-3" d="M208.6,196.28c.31-.32.5-.76.74-1.15-.06-.12-.12-.25-.18-.37-.65.11-1.43.02-1.91.37-.69.51-1.3.77-2.06.41-.76-.36-1.11-.99-.95-2.06,1.56,0,3.06.03,4.56-.03.28-.01.76-.37.8-.62.25-1.5-.92-3.39-2.32-3.91-1.74-.64-3.63-.11-4.5,1.36-1.03,1.73-1.04,3.55-.06,5.29,1.04,1.85,4.39,2.23,5.89.71ZM204.3,191.3c.32-.74.86-1.25,1.74-1.13,1.09.14,1.47.88,1.57,2.16-.97,0-1.82,0-2.67,0-.77,0-.91-.43-.65-1.03Z"/>
        <path class="cls-3" d="M204.99,206.47c-.36-.12-.72-.22-1.08-.32-.62-.17-1.26-.28-1.85-.52-.26-.1-.49-.44-.58-.71-.04-.14.27-.56.41-.56.76.02,1.76-.14,2.22.27.79.69,1.39.5,2.42.14-.41-.52-.62-1-.99-1.24-1.48-.97-3.08-.91-4.65-.28-.91.36-1.4,1.18-1.33,2.18.07,1.05.67,1.73,1.69,2.03.72.21,1.45.41,2.17.64.58.18,1.51.2,1.22,1.08-.13.41-.95.75-1.49.83-.45.06-1.16-.17-1.41-.51-.74-1.07-1.5-.53-2.5-.31.34.48.53.85.82,1.12,1.41,1.32,3.1,1.25,4.79.82,1.16-.29,2.04-1.43,2-2.48-.04-1.19-.82-1.8-1.86-2.16Z"/>
        <path class="cls-3" d="M260.75,204.77c-.07-1.03-.76-1.64-1.84-1.86-1.31-.27-2.33.26-3.4,1.16-.03-1.12-.67-1.18-1.4-1.07-.93.14-.52.89-.53,1.36-.05,1.74-.02,3.48-.01,5.22,0,1.69.13,1.78,1.98,1.35,0-1.24-.02-2.52,0-3.79.01-.52.06-1.06.2-1.56.26-.93.96-1.38,1.89-1.26.9.12,1.21.8,1.2,1.65,0,1.44.02,2.87.03,4.31,0,.62.29.88.91.87.58-.01,1.08-.08,1.07-.83-.03-1.85.02-3.71-.11-5.55Z"/>
        <path class="cls-3" d="M229.56,204.47c0,1.21,0,2.42-.09,3.63-.04.45-.24,1.08-.57,1.27-.5.29-1.26.51-1.76.33-.41-.15-.82-.9-.85-1.41-.1-1.72-.04-3.46-.04-5.24h-1.92c-.04.26-.07.41-.07.56,0,1.7-.04,3.41,0,5.11.05,2.13,1.85,3.23,3.81,2.35.5-.23.96-.55,1.44-.83-.03.11-.05.21-.08.32.43.21.84.52,1.28.59.22.03.73-.38.73-.59.05-2.49.03-4.97.03-7.43-1.89-.32-1.92-.3-1.93,1.34Z"/>
        <path class="cls-3" d="M197.43,205.51c-.07-2.38-2.23-3.48-4.27-2.19-.33.21-.66.43-1.09.7-.1-1.51-1.05-.92-1.88-1,0,2.57-.01,5.06.03,7.54,0,.19.4.5.65.55.76.14,1.31,0,1.3-1.01-.01-1.47.04-2.95.18-4.41.09-.93.84-1.37,1.69-1.39.9-.02,1.35.61,1.39,1.48.06,1.4.1,2.8.11,4.2,0,.65-.02,1.17.91,1.19.97.01,1.01-.5,1-1.22-.03-1.48.02-2.95-.02-4.43Z"/>
        <path class="cls-3" d="M221.05,208.14c0-.76.03-1.52-.01-2.27-.04-.76.02-1.35,1.01-1.38.18,0,.45-.53.46-.82,0-.22-.3-.51-.53-.65-.2-.12-.51-.08-.87-.12-.04-.82-.08-1.62-.13-2.56-.99.57-2.05.77-1.94,2.11.01.17-.33.42-.56.55-.61.33-.78,1.3-.18,1.47.91.26.77.88.79,1.5.03,1.36-.01,2.73.14,4.08.12,1.05,1.28,1.5,2.64,1.25.92-.17.79-.73.6-1.44-1.41-.27-1.43-.3-1.43-1.71Z"/>
        <path class="cls-3" d="M212.14,209.78c-.73-.06-.88-.51-.89-1.07-.03-1.09-.07-2.19,0-3.28.02-.3.38-.79.64-.83,1.07-.16.87-.81.73-1.55-2.31.16-1.04-1.64-1.53-2.66-.92.5-2.03.69-1.88,2.1.02.14-.37.36-.6.48-.5.26-.68,1.32-.2,1.44,1.05.25.84.99.84,1.67,0,1.02-.01,2.04,0,3.06.02,1.75,1.17,2.63,2.85,2.11.29-.09.59-.51.65-.83.04-.18-.38-.63-.62-.65Z"/>
        <path class="cls-3" d="M237.2,209.79c-1.21,0-1.19-.8-1.17-1.64.01-.76.03-1.52,0-2.27-.03-.73-.03-1.37.99-1.39.17,0,.46-.53.47-.82,0-.22-.35-.65-.53-.64-.91.04-.97-.5-.94-1.17.02-.45,0-.9,0-1.54-1.05.56-2.09.77-1.99,2.11.01.17-.36.36-.54.56-.19.22-.5.45-.51.69-.01.27.19.74.39.79.72.19.7.69.7,1.23,0,1.25-.03,2.5.02,3.75.06,1.58,1.72,2.49,3.11,1.71.21-.11.39-.46.39-.7,0-.24-.26-.67-.4-.67Z"/>
        <path class="cls-3" d="M225.29,190.27c.95.22.79.85.8,1.47,0,1.1-.01,2.2,0,3.29.03,1.73,1.47,2.69,3.04,2.01.23-.1.44-.47.47-.74.02-.23-.23-.69-.36-.69-1.3,0-1.18-.9-1.18-1.74,0-.87-.04-1.75.03-2.61.02-.3.32-.8.52-.81,1.06-.06,1.01-.68.85-1.47q-.96-.14-1.58-2.69c-.87.42-1.9.58-1.82,1.93.01.21-.33.51-.57.66-.58.35-.74,1.27-.18,1.4Z"/>
        <path class="cls-3" d="M186.86,199.83c-.54.02-1.08-.07-1.08.76.02,3.21.02,6.42,0,9.63,0,.86.5.94,1.18.95.72,0,.89-.34.88-.98-.03-1.55,0-3.1,0-4.64,0-1.62-.02-3.25.01-4.87.02-.76-.39-.87-1-.84Z"/>
        <path class="cls-3" d="M201.36,189.09c-1.3-.88-2.2-.24-2.75.33-.77-.24-1.31-.56-1.77-.48-.26.05-.53.76-.56,1.19-.08,1.24-.03,2.5-.03,3.75,0,1.01,0,2.01,0,2.98q2.01.26,2.01-1.5c0-.76,0-1.51.01-2.27.06-2.19.43-2.56,2.59-2.56.16-.44.32-.9.5-1.42Z"/>
        <path class="cls-3" d="M216.4,203.04h-2.05c0,2.58,0,5.03,0,7.47,0,.79.62.6,1.07.63.53.04,1-.02.99-.73-.01-1.21-.02-2.41-.02-3.62,0-1.23,0-2.46,0-3.75Z"/>
        <path class="cls-3" d="M241.06,203.04h-1.82c0,2.42.02,4.8-.01,7.17-.01.79.35.94,1.03.95.77.02.96-.33.95-1.03-.03-2.08-.01-4.16-.03-6.24,0-.28-.08-.57-.13-.84Z"/>
        <path class="cls-3" d="M221.35,190.5c0,1.62,0,3.25,0,4.87q0,1.75,1.86,1.5v-7.92q-1.85-.21-1.86,1.55Z"/>
        <path class="cls-3" d="M215.39,199.82c-.79.01-1.06.31-1.08,1.07-.02.77.36.91,1.01.82.57.04,1.12.08,1.11-.82-.01-.76-.21-1.09-1.04-1.07Z"/>
        <path class="cls-3" d="M240.99,200.05c-.35-.25-1.21-.32-1.43-.08-.32.34-.27,1.04-.44,1.92.88-.21,1.54-.23,1.98-.55.2-.14.14-1.12-.1-1.3Z"/>
        <path class="cls-3" d="M223.2,187.64v-2.06c-.69.15-1.34.14-1.74.45-.22.17-.17,1.16.06,1.31.43.28,1.08.21,1.68.29Z"/>
      </g>
    </g>
  </g>
</svg>