<?xml version="1.0" encoding="UTF-8"?>
<svg id="Layer_2" data-name="Layer 2" xmlns="http://www.w3.org/2000/svg" viewBox="0 0 358.88 225.28">
  <defs>
    <style>
      .cls-1 {
        fill: #7b4a2c;
      }

      .cls-1, .cls-2 {
        fill-rule: evenodd;
      }

      .cls-2 {
        fill: #d8b358;
      }
    </style>
  </defs>
  <g id="Layer_1-2" data-name="Layer 1">
    <g>
      <path class="cls-2" d="M161.05,2.09C74.77.74,10.32,21.42,23.07,44.67c2.96,5.41,8.67,8.48,13.95,11.27,43.44,22.95,137.34,26.37,211.03,8.06,14.78-3.67,29.67-8.14,43.55-14.46,4.95-2.25,9.9-4.72,13.86-6.99,19.23,6.05,45.96,14.26,53.42,16.66-97.66,55.18-257.52,57.51-333.06,12.85C14.03,65.09-7.16,52.5,2.41,35.91c2.39-4.15,6.46-7.98,11.83-11.1C38.74,7.01,111.78-5.06,161.05,2.09h0Z"/>
      <path class="cls-1" d="M100.22,32.38c30.54.78,74.12-13.68,87.16-28.93,9.72,3.87,22.34,9.03,25.06,10.32-28.75,18.38-84.76,27.69-112.22,18.61h0Z"/>
      <path class="cls-1" d="M239.24,19.84c-19.62,22.59-97.99,39.7-156.75,34.22,48.97,15.78,145.27,5.53,192.6-20.49-10.96-4.42-29.13-11.15-35.86-13.73h0Z"/>
      <path class="cls-1" d="M98.02,181.08c0,1.47-.89,4.11-2.67,7.91-1.79,3.82-3.23,6.17-4.36,7.08-1.37,1.09-5.66,2.46-12.86,4.11-8.6,1.97-16.54,2.96-23.84,2.96-9.79,0-16.54-1.92-20.21-5.75-2.35-2.44-3.52-6.04-3.52-10.82,0-6.49,1.85-12.61,5.58-18.34.14-.03.32-.05.51-.05,1.37,0,2.32.53,2.86,1.58-1.9,4.49-2.86,7.93-2.86,10.31,0,6.89,7.43,10.34,22.27,10.34,13.49,0,24.05-1.61,31.7-4.83-1.31-3.4-3.04-6.52-5.14-9.36l7.11-9.64c1.44,1.77,2.73,4.35,3.88,7.72,1.02,3,1.55,5.26,1.55,6.79h0ZM329.79,183.04c-1.09,6.61-2.59,11.12-4.49,13.49-3.53,4.39-8.47,6.6-14.8,6.6h-3.07c-5.96,0-9.84-2.46-11.66-7.4-1.21-3.34-2.03-10.79-2.43-22.32-.19-5.72-.41-9.68-.7-11.9-.53-4.3-1.52-8.12-2.99-11.46l8.56-9c1.42,2.28,2.32,5.78,2.65,10.53.13,1.73.19,5.35.19,10.91v13.81c0,4.12.3,7.11.89,9,1.05,3.34,3.18,5,6.38,5h4.04c6.77,0,10.16-1.01,10.16-3.04,0-1.41-1.77-4.49-5.31-9.27l7.22-9.83c3.56,4.75,5.34,9.7,5.34,14.88h0ZM329.35,218.16l-7.53,7.11-7.41-7.41,7.65-6.98,7.29,7.29h0ZM282.33,183.04c-1.09,6.61-2.59,11.11-4.49,13.49-3.53,4.39-8.47,6.6-14.8,6.6h-3.08c-3.45,0-6.74-1.21-9.87-3.66-1.71-1.33-3.93-3.76-6.65-7.25-2.72-3.48-4.87-5.88-6.5-7.16.19,1.13.29,2.3.29,3.52,0,1.6-.18,3.28-.53,5.05-2.78,3.99-7.29,6.71-13.52,8.15-3.93.91-9.33,1.36-16.2,1.36-9.33,0-15.63-.65-18.87-1.97-4.75-1.9-7.11-5.93-7.11-12.08,0-5.53,1.92-11.3,5.75-17.32,1.47-.13,2.41.38,2.81,1.55-1.81,2.96-2.72,5.8-2.72,8.53,0,3.93,2.24,6.42,6.7,7.53,2.52.62,7.78.93,15.77.93,7.37,0,12.75-.29,16.15-.85,3.07-.5,5.67-1.5,7.81-3.04-3.61-6.04-9.92-11.12-18.9-15.2.19-6.33.69-11.65,1.5-15.95,13.5-7.61,26.48-12.75,38.89-15.44l-5.61,12.08c-4.38,1.05-10.02,3-16.95,5.85-5.53,2.25-9.52,4.04-11.98,5.38,4.91,1.84,10.51,5.21,16.86,10.11,2.36,1.84,5.29,4.54,8.76,8.09,3.12,3.23,5.4,5.34,6.82,6.38,2.36,1.7,4.82,2.56,7.38,2.57h4.87c6.77,0,10.16-1.01,10.16-3.04,0-1.41-1.77-4.51-5.3-9.27l7.22-9.83c3.56,4.73,5.34,9.7,5.34,14.88h0ZM283.03,154.31l-7.54,7.09-7.4-7.38,7.67-7.03,7.27,7.32h0ZM145.36,183.04c-1.09,6.61-2.59,11.11-4.49,13.49-3.53,4.39-8.47,6.6-14.8,6.6h-3.07c-5.96,0-9.84-2.46-11.66-7.4-1.21-3.34-2.03-10.79-2.43-22.32-.19-5.72-.42-9.68-.7-11.9-.53-4.3-1.52-8.12-2.99-11.46l8.56-9c1.42,2.28,2.32,5.78,2.65,10.53.13,1.73.19,5.35.19,10.91v13.81c0,4.12.3,7.11.89,9,1.05,3.34,3.18,5,6.38,5h4.04c6.77,0,10.16-1.01,10.16-3.04,0-1.41-1.77-4.51-5.3-9.27l7.22-9.83c3.56,4.73,5.34,9.7,5.34,14.88h0ZM152.04,154.71l-6.49,6.42-6.58-5.77-5.96,6.04-6.89-6.04,6.46-6.58,6.55,5.85,5.99-6.14,6.92,6.22h0ZM80.5,160.71l-6.95,6.55-6.78-6.87,7.13-6.36,6.6,6.68h0ZM63.39,161.63l-6.93,6.5-6.79-6.85,7.06-6.33,6.66,6.68h0Z"/>
    </g>
  </g>
</svg>